<svg width="459" height="604" viewBox="0 0 459 604" fill="none" xmlns="http://www.w3.org/2000/svg">
<path d="M42.3053 90.1502L55.7487 76.7399L68.856 63.6648V49.2486L82.2994 40.8671L89.3571 32.4856L114.563 21.422L130.359 13.0405L145.819 6L156.91 13.0405H178.42L188.166 6H202.618L219.422 13.0405H243.619L250.677 6H277.228L286.638 13.0405H303.779L321.591 21.422H341.084L370.995 32.4856L389.145 40.8671L403.595 49.2486L413.342 63.6648L427.793 76.7399V90.1502L439.557 105.572V115.295L447.959 129.711L439.557 142.786L447.959 161.897L453 178.994V188.381L447.959 200.451V218.555L453 237.665L447.959 249.734L439.557 260.463L427.793 272.531V289.296L413.342 305.052L398.89 314.44L389.145 318.127V330.197L370.995 340.924H363.938L352.846 348.3H341.084L332.682 352.994H321.591L314.533 360.035L297.729 352.994H286.638V366.07V384.173L292.688 396.243L303.779 420.381L314.533 444.185L332.682 453.907L363.938 466.983L381.75 476.705H413.342L403.595 485.087H389.145L370.995 494.809H352.846H332.682V513.918L341.084 523.642L352.846 543.757V567.897L341.084 549.792L321.591 543.757L297.729 530.683L277.228 505.537V523.642V543.757L250.677 586V567.897L243.619 549.792L237.571 530.683H219.422L209.676 543.757L202.618 555.827L188.166 567.897L172.37 578.624V567.897L178.42 549.792V523.642L167.665 530.683L145.819 543.757L130.359 555.827L122.965 567.897V549.792L130.359 530.683L145.819 505.537L130.359 513.918L103.809 523.642L76.2498 530.683H42.3053L68.856 513.918L89.3571 494.809L114.563 476.705L130.359 453.907L145.819 437.144L156.91 420.381L167.665 399.93L172.37 384.173L178.42 360.035L172.37 348.3L167.665 352.994L156.91 360.035L145.819 366.07H130.359H114.563H103.809L89.3571 360.035V352.994H76.2498L68.856 340.924L55.7487 330.197L42.3053 318.127L35.2475 305.052L27.8537 289.296V272.531L20.7959 260.463L14.7464 242.358V231.63V218.555L5 212.52V200.451V188.381L14.7464 178.994V167.93L20.7959 161.897V153.514L27.8537 142.786V136.751L35.2475 129.711V115.295V105.572L42.3053 90.1502Z" fill="white" stroke="black" stroke-width="10"/>
</svg>
